# xmcd
#
# Track frame offsets:
#	150
#	21578
#	40246
#	59493
#	76301
#	92826
#	114836
#	135613
#	154438
#	175126
#	193776
#	217950
#	239300
#	255357
#	270335
#	283682
#	299803
#
# Disc length: 4247 seconds
# Revision: 2
# Processed by: cddbd v1.5.2PL0 Copyright (c) Steve Scherf et al.
# Submitted via: dBpowerAMP V12.0
#
DISCID=fa109511
DTITLE=Lacy J. Dalton - The Last Wild Place: Anthology
DYEAR=2007
DGENRE=Country
TTITLE0=Listen to the Wind
TTITLE1=Hearts of Hearts (Stay Open)
TTITLE2=The Wanderers
TTITLE3=Old Dog Blue
TTITLE4=The Alaska Song
TTITLE5=Standin' Knee Deep
TTITLE6=Slip Away
TTITLE7=Little Boy Blue
TTITLE8=The Last Wild Place
TTITLE9=Sanctuary
TTITLE10=She Could Run
TTITLE11=Boundless Skies
TTITLE12=Black Coffee
TTITLE13=16th Avenue
TTITLE14=Crazy Blue Eyes
TTITLE15=Takin' It Easy
TTITLE16=Everybody Makes Mistakes
EXTD=
EXTT0=
EXTT1=
EXTT2=
EXTT3=
EXTT4=
EXTT5=
EXTT6=
EXTT7=
EXTT8=
EXTT9=
EXTT10=
EXTT11=
EXTT12=
EXTT13=
EXTT14=
EXTT15=
EXTT16=
PLAYORDER=
